<?xml version="1.0" encoding="UTF-8" standalone="no"?>
<svg id="svg4595" xmlns:rdf="http://www.w3.org/1999/02/22-rdf-syntax-ns#" xmlns="http://www.w3.org/2000/svg" xml:space="preserve" viewBox="0 0 401 400.99998" height="401" width="401" version="1.1" xmlns:cc="http://creativecommons.org/ns#" xmlns:dc="http://purl.org/dc/elements/1.1/" overflow="visible"><metadata id="metadata4601"><rdf:RDF><cc:Work rdf:about=""><dc:format>image/svg+xml</dc:format><dc:type rdf:resource="http://purl.org/dc/dcmitype/StillImage"/><dc:title/></cc:Work></rdf:RDF></metadata><g id="g4593" style="image-rendering:optimizeQuality;shape-rendering:geometricPrecision" transform="matrix(.20132 0 0 .20132 290.62 245.91)"><path id="path4567" fill="#0c479c" d="m383.48 267.34c-2.544-1.346-5.14-2.493-7.743-3.516l1.863-0.15s-16.608-7.354-18.057-60.722c-1.438-53.372 15.828-62.478 15.828-62.478l-2.48 0.109c13.045-6.69 24.265-17.267 31.669-31.216 19.295-36.291 5.488-81.362-30.81-100.66-36.31-19.276-81.372-5.506-100.66 30.817-7.927 14.899-10.178 31.273-7.677 46.733l-0.851-1.306s4.373 19.365-41.032 47.55c-45.397 28.2-65.877 14.159-65.877 14.159l1.302 1.925c-1.298-0.803-2.544-1.624-3.901-2.333-36.306-19.294-81.38-5.509-100.67 30.804-19.281 36.309-5.489 81.365 30.813 100.67 27.064 14.364 58.974 10.36 81.461-7.655l-0.487 0.946s16.531-13.599 64.16 11.973c37.601 20.178 43.184 39.956 43.899 47.383-0.983 27.57 13.388 54.618 39.389 68.433 36.301 19.299 81.374 5.498 100.66-30.804 19.292-36.302 5.507-81.382-30.803-100.66zm-83.934 9.785c-6.018 2.129-23.203 4.487-59.389-14.921-39.187-21.04-45.005-38.615-45.855-43.891 0.557-6.401 0.202-12.791-0.891-19.02l0.239 0.359s-3.189-17.096 41.65-44.943c40.133-24.908 58.376-19.955 61.771-18.653 2.185 1.485 4.45 2.867 6.825 4.131 4.518 2.398 9.174 4.283 13.888 5.672 5.52 5.257 15.678 20.178 16.733 59.413 1.078 39.535-10.533 54.779-16.865 60.168-6.526 2.956-12.626 6.897-18.106 11.685z"/><g id="g4571"><path id="path4569" fill="#fff" d="m294.63 32.4c-21.659 23.694-22.118 58.544-1.246 78.264-10.316-9.935-10.093-30.608 0.33-50.387 1.342-1.774 5.224-5.961 10.898-4.055 0.569 0.194 0.951 0.245 1.17 0.213 1.284 0.278 2.601 0.439 3.96 0.381 8.622-0.393 15.288-7.684 14.898-16.307-0.175-3.868-1.78-7.292-4.26-9.92 20.007-13.107 42.968-14.61 52.375-6.016l0.359 0.025c-21.5-19.628-56.63-16.122-78.49 7.802z"/></g><g id="g4577" fill="#fff"><path id="path4573" d="m76.205 251.38c-0.184-0.19-0.371-0.406-0.562-0.598 0.121 0.125 0.235 0.279 0.378 0.407z"/><path id="path4575" d="m76.894 172.52c-21.663 23.694-22.114 58.541-1.251 78.264-10.313-9.935-10.092-30.608 0.331-50.387 1.345-1.778 5.231-5.961 10.906-4.055 0.565 0.195 0.946 0.242 1.167 0.212 1.283 0.275 2.603 0.44 3.959 0.377 8.623-0.392 15.288-7.684 14.899-16.303-0.179-3.867-1.782-7.296-4.252-9.92 19.995-13.107 42.959-14.617 52.366-6.021l0.355 0.03c-21.483-19.631-56.623-16.126-78.48 7.803z"/></g><g id="g4583" fill="#fff"><path id="path4579" d="m306.7 370.02c-0.187-0.191-0.374-0.404-0.564-0.594 0.117 0.125 0.237 0.279 0.378 0.402z"/><path id="path4581" d="m307.39 291.14c-21.666 23.704-22.118 58.553-1.254 78.276-10.317-9.935-10.09-30.611 0.331-50.388 1.344-1.781 5.227-5.96 10.906-4.053 0.568 0.189 0.941 0.242 1.166 0.212 1.282 0.277 2.605 0.44 3.963 0.381 8.617-0.396 15.28-7.692 14.891-16.32-0.176-3.864-1.781-7.288-4.252-9.917 20.002-13.103 42.959-14.61 52.37-6.016l0.355 0.029c-21.483-19.631-56.625-16.123-78.476 7.796z"/></g></g><rect id="rect4941" stroke-opacity=".40704" height="400" width="400" stroke="#000" y=".5" x=".5" fill="none"/><path id="path4725" d="m343.88 263.01c-24.659 0.68772-48.716-5.1726-72.09-12.438-12.986-3.7239-23.4-13.302-34.259-20.984-13.979-10.181-23.86-24.698-36.927-35.797-13.697-9.2889-31.945-7.5917-45.991 0.0376-20.368 8.9374-40.44 23.876-63.765 21.496-15.216-3.6098-28.545-14.89-35.92-28.548-6.1658-13.473-0.93859-28.753 2.3428-42.301 3.8857-12.384 11.701-23.705 10.948-37.19 0.4732-9.5786-0.60165-29.965 4.6622-31.314-2.9543 12.81 4.2138 23.569 7.1552 35.614 1.1424 16.39-8.1371 31.82-9.5111 48.164-2.931 13.966 5.7322 28.735 19.737 32.161 19.353 5.6722 35.719-9.2865 52.104-16.888 23.122-12.494 54.372-13.811 74.827 4.6533 16.843 14.71 32.546 30.809 50.752 43.898 15.609 15.443 38.42 17.128 57.974 24.527 7.2696 3.113 13.592 8.3045 17.96 14.907z" stroke-opacity=".40704" fill-opacity=".56281" stroke="#b9d5d9" stroke-width="1.3864px" fill="#c7d3ca"/></svg>
